<?xml version="1.0" encoding="UTF-8"?>
<!DOCTYPE svg PUBLIC "-//W3C//DTD SVG 1.1//EN" "http://www.w3.org/Graphics/SVG/1.1/DTD/svg11.dtd">
<svg xmlns="http://www.w3.org/2000/svg" version="1.1" width="1591px" height="1333px" style="shape-rendering:geometricPrecision; text-rendering:geometricPrecision; image-rendering:optimizeQuality; fill-rule:evenodd; clip-rule:evenodd" xmlns:xlink="http://www.w3.org/1999/xlink">
<g><path style="opacity:0.286" fill="#9d8c67" d="M 781.5,97.5 C 803.5,97.5 825.5,97.5 847.5,97.5C 847.5,98.1667 847.5,98.8333 847.5,99.5C 825.5,99.5 803.5,99.5 781.5,99.5C 781.5,98.8333 781.5,98.1667 781.5,97.5 Z"/></g>
<g><path style="opacity:0.999" fill="#debf67" d="M 781.5,99.5 C 803.5,99.5 825.5,99.5 847.5,99.5C 853.779,99.8017 859.945,100.802 866,102.5C 867.03,102.164 867.53,101.497 867.5,100.5C 868.492,100.328 869.158,100.662 869.5,101.5C 868.262,101.81 868.262,102.31 869.5,103C 911.573,110.874 949.573,127.708 983.5,153.5C 1010.63,173.459 1033.46,197.459 1052,225.5C 1057.1,235.017 1061.6,244.684 1065.5,254.5C 1068.54,273.407 1069.2,292.407 1067.5,311.5C 1062.76,334.647 1052.93,355.314 1038,373.5C 1021.76,393.074 1003.59,410.574 983.5,426C 977.931,429.752 972.264,433.252 966.5,436.5C 965.504,436.586 964.671,436.252 964,435.5C 963.333,436.833 962.333,437.833 961,438.5C 951.381,438.667 942.214,436.834 933.5,433C 927.642,428.137 921.809,423.304 916,418.5C 914.291,415.582 912.458,412.748 910.5,410C 911.817,401.635 911.817,392.635 910.5,383C 911.357,382.311 912.023,381.478 912.5,380.5C 910.724,379.685 910.057,378.518 910.5,377C 911.167,376 911.833,375 912.5,374C 911.063,370.625 910.063,367.125 909.5,363.5C 908.167,363.5 906.833,363.5 905.5,363.5C 906.033,356.431 904.033,350.431 899.5,345.5C 872.693,297.944 832.693,280.777 779.5,294C 745.697,306.8 724.197,330.633 715,365.5C 713.283,377.198 713.117,388.865 714.5,400.5C 714.667,591.834 714.5,783.167 714,974.5C 713.015,987.162 712.182,999.828 711.5,1012.5C 703.642,1049.24 689.809,1083.57 670,1115.5C 664.637,1123.02 659.137,1130.35 653.5,1137.5C 652.127,1137.34 650.793,1137.51 649.5,1138C 646.637,1141.8 643.637,1145.46 640.5,1149C 638.032,1150.38 635.865,1152.22 634,1154.5C 633.282,1153.55 632.449,1153.38 631.5,1154C 630.773,1155.4 630.273,1156.9 630,1158.5C 623.69,1163.15 617.69,1168.15 612,1173.5C 609.956,1176.31 608.289,1179.31 607,1182.5C 606.667,1182.17 606.333,1181.83 606,1181.5C 604.509,1183 602.676,1183.84 600.5,1184C 597.555,1186.26 595.221,1189.09 593.5,1192.5C 587.65,1194.91 582.317,1198.24 577.5,1202.5C 573.544,1203.31 570.044,1204.98 567,1207.5C 566.228,1207.36 565.561,1207.02 565,1206.5C 562.984,1208.68 560.817,1210.68 558.5,1212.5C 557.614,1213.32 557.281,1214.32 557.5,1215.5C 552.215,1216.92 546.881,1218.26 541.5,1219.5C 540.232,1221.05 538.565,1222.05 536.5,1222.5C 535.614,1223.32 535.281,1224.32 535.5,1225.5C 526.985,1229.56 518.319,1233.23 509.5,1236.5C 493.569,1240.38 477.569,1243.38 461.5,1245.5C 460.833,1245.5 460.167,1245.5 459.5,1245.5C 432.416,1247.37 405.416,1246.7 378.5,1243.5C 378.167,1243.5 377.833,1243.5 377.5,1243.5C 374.411,1242.22 371.078,1241.55 367.5,1241.5C 353.511,1237.69 339.511,1233.53 325.5,1229C 318.894,1226.64 312.561,1223.8 306.5,1220.5C 305.924,1216.89 306.924,1213.89 309.5,1211.5C 312.839,1211.11 316.173,1210.61 319.5,1210C 392.376,1187.95 448.043,1144.12 486.5,1078.5C 502.328,1053.36 512.661,1026.03 517.5,996.5C 520.262,988.358 522.262,980.024 523.5,971.5C 523.5,971.167 523.5,970.833 523.5,970.5C 524.833,769.5 524.833,568.5 523.5,367.5C 523.5,366.5 523.5,365.5 523.5,364.5C 524.222,364.082 524.722,363.416 525,362.5C 525.587,354.807 526.42,347.14 527.5,339.5C 527.489,337.955 527.156,336.622 526.5,335.5C 526.833,334.833 527.167,334.167 527.5,333.5C 530.232,321.852 533.399,310.185 537,298.5C 541.174,287.113 545.341,275.78 549.5,264.5C 594.34,175.513 665.673,121.013 763.5,101C 769.465,100.037 775.465,99.5368 781.5,99.5 Z"/></g>
<g><path style="opacity:0.067" fill="#3f3d25" d="M 847.5,97.5 C 854.081,97.793 860.747,98.793 867.5,100.5C 867.53,101.497 867.03,102.164 866,102.5C 859.945,100.802 853.779,99.8017 847.5,99.5C 847.5,98.8333 847.5,98.1667 847.5,97.5 Z"/></g>
<g><path style="opacity:0.227" fill="#554e36" d="M 781.5,97.5 C 781.5,98.1667 781.5,98.8333 781.5,99.5C 775.465,99.5368 769.465,100.037 763.5,101C 665.673,121.013 594.34,175.513 549.5,264.5C 552.989,255.205 557.156,246.205 562,237.5C 610.48,159.982 679.98,113.482 770.5,98C 774.152,97.5014 777.818,97.3347 781.5,97.5 Z"/></g>
<g><path style="opacity:0.09" fill="#514e38" d="M 869.5,101.5 C 911.714,108.949 949.714,125.615 983.5,151.5C 983.5,152.167 983.5,152.833 983.5,153.5C 949.573,127.708 911.573,110.874 869.5,103C 868.262,102.31 868.262,101.81 869.5,101.5 Z"/></g>
<g><path style="opacity:0.094" fill="#3f3c29" d="M 983.5,151.5 C 1011.38,171.54 1034.88,195.873 1054,224.5C 1059.26,234.012 1063.1,244.012 1065.5,254.5C 1061.6,244.684 1057.1,235.017 1052,225.5C 1033.46,197.459 1010.63,173.459 983.5,153.5C 983.5,152.833 983.5,152.167 983.5,151.5 Z"/></g>
<g><path style="opacity:0.106" fill="#262315" d="M 1070.5,277.5 C 1071.69,286.349 1071.69,295.015 1070.5,303.5C 1069.17,294.833 1069.17,286.167 1070.5,277.5 Z"/></g>
<g><path style="opacity:0.067" fill="#48442b" d="M 899.5,345.5 C 900.929,348.308 901.595,351.308 901.5,354.5C 878.838,305.086 840.504,284.919 786.5,294C 747.164,306.305 723.664,332.472 716,372.5C 715.5,381.827 715.334,391.161 715.5,400.5C 715.167,400.5 714.833,400.5 714.5,400.5C 713.117,388.865 713.283,377.198 715,365.5C 724.197,330.633 745.697,306.8 779.5,294C 832.693,280.777 872.693,297.944 899.5,345.5 Z"/></g>
<g><path style="opacity:0.108" fill="#716943" d="M 1065.5,254.5 C 1066.22,254.918 1066.72,255.584 1067,256.5C 1068.57,263.445 1069.73,270.445 1070.5,277.5C 1069.17,286.167 1069.17,294.833 1070.5,303.5C 1069.61,306.054 1069.28,308.721 1069.5,311.5C 1068.83,311.5 1068.17,311.5 1067.5,311.5C 1069.2,292.407 1068.54,273.407 1065.5,254.5 Z"/></g>
<g><path style="opacity:0.133" fill="#423c25" d="M 549.5,264.5 C 545.341,275.78 541.174,287.113 537,298.5C 533.399,310.185 530.232,321.852 527.5,333.5C 530.695,311.403 536.862,290.069 546,269.5C 547.03,267.654 548.196,265.987 549.5,264.5 Z"/></g>
<g><path style="opacity:0.161" fill="#574d2e" d="M 526.5,335.5 C 527.156,336.622 527.489,337.955 527.5,339.5C 526.42,347.14 525.587,354.807 525,362.5C 524.722,363.416 524.222,364.082 523.5,364.5C 524.392,354.818 525.392,345.151 526.5,335.5 Z"/></g>
<g><path style="opacity:0.863" fill="#afa069" d="M 899.5,345.5 C 904.033,350.431 906.033,356.431 905.5,363.5C 904.901,360.212 903.568,357.212 901.5,354.5C 901.595,351.308 900.929,348.308 899.5,345.5 Z"/></g>
<g><path style="opacity:0.224" fill="#2c2b1a" d="M 901.5,354.5 C 903.568,357.212 904.901,360.212 905.5,363.5C 905.5,364.5 905.5,365.5 905.5,366.5C 905.737,367.791 905.404,368.791 904.5,369.5C 903.593,364.485 902.593,359.485 901.5,354.5 Z"/></g>
<g><path style="opacity:0.413" fill="#746e4d" d="M 905.5,366.5 C 906.163,368.042 906.83,369.709 907.5,371.5C 908.82,379.323 908.82,386.99 907.5,394.5C 907.666,388.491 907.499,382.491 907,376.5C 906.617,377.056 906.117,377.389 905.5,377.5C 905.721,374.721 905.388,372.054 904.5,369.5C 905.404,368.791 905.737,367.791 905.5,366.5 Z"/></g>
<g><path style="opacity:0.996" fill="#d3ba6d" d="M 905.5,363.5 C 906.833,363.5 908.167,363.5 909.5,363.5C 910.063,367.125 911.063,370.625 912.5,374C 911.833,375 911.167,376 910.5,377C 910.057,378.518 910.724,379.685 912.5,380.5C 912.023,381.478 911.357,382.311 910.5,383C 911.817,392.635 911.817,401.635 910.5,410C 912.458,412.748 914.291,415.582 916,418.5C 921.809,423.304 927.642,428.137 933.5,433C 942.214,436.834 951.381,438.667 961,438.5C 962.333,437.833 963.333,436.833 964,435.5C 964.671,436.252 965.504,436.586 966.5,436.5C 963.603,438.778 960.27,440.278 956.5,441C 931.124,444.617 914.958,434.117 908,409.5C 907.501,404.511 907.334,399.511 907.5,394.5C 908.82,386.99 908.82,379.323 907.5,371.5C 906.83,369.709 906.163,368.042 905.5,366.5C 905.5,365.5 905.5,364.5 905.5,363.5 Z"/></g>
<g><path style="opacity:0.027" fill="#463f29" d="M 1067.5,311.5 C 1068.17,311.5 1068.83,311.5 1069.5,311.5C 1066.78,323.594 1062.94,335.26 1058,346.5C 1051.15,358.848 1043.31,370.515 1034.5,381.5C 1018.91,398.257 1002.25,413.757 984.5,428C 976.423,434.038 967.756,439.038 958.5,443C 932.593,447.06 915.093,436.893 906,412.5C 906.135,400.79 905.968,389.123 905.5,377.5C 906.117,377.389 906.617,377.056 907,376.5C 907.499,382.491 907.666,388.491 907.5,394.5C 907.334,399.511 907.501,404.511 908,409.5C 914.958,434.117 931.124,444.617 956.5,441C 960.27,440.278 963.603,438.778 966.5,436.5C 972.264,433.252 977.931,429.752 983.5,426C 1003.59,410.574 1021.76,393.074 1038,373.5C 1052.93,355.314 1062.76,334.647 1067.5,311.5 Z"/></g>
<g><path style="opacity:0.133" fill="#2f1b12" d="M 1100.5,453.5 C 1099.83,453.5 1099.17,453.5 1098.5,453.5C 1098.5,447.5 1098.5,441.5 1098.5,435.5C 1097.5,435.5 1096.5,435.5 1095.5,435.5C 1095.29,441.989 1094.29,448.322 1092.5,454.5C 1090.3,461.781 1088.3,469.114 1086.5,476.5C 1083.72,481.169 1081.72,486.169 1080.5,491.5C 1076.84,500.121 1073.18,508.787 1069.5,517.5C 1062.17,529.492 1054.84,541.492 1047.5,553.5C 1046.5,553.833 1045.83,554.5 1045.5,555.5C 1044.66,555.158 1044.33,554.492 1044.5,553.5C 1063.45,526.933 1077.62,497.933 1087,466.5C 1090,454.333 1092.33,442.333 1094,430.5C 1094.45,426.862 1096.29,424.528 1099.5,423.5C 1101.83,433.404 1102.16,443.404 1100.5,453.5 Z"/></g>
<g><path style="opacity:0.929" fill="#a16f54" d="M 1098.5,453.5 C 1098.17,453.5 1097.83,453.5 1097.5,453.5C 1097.5,452.167 1097.5,450.833 1097.5,449.5C 1096.32,449.281 1095.32,449.614 1094.5,450.5C 1094.01,452.026 1093.34,453.359 1092.5,454.5C 1094.29,448.322 1095.29,441.989 1095.5,435.5C 1096.5,435.5 1097.5,435.5 1098.5,435.5C 1098.5,441.5 1098.5,447.5 1098.5,453.5 Z"/></g>
<g><path style="opacity:0.463" fill="#8a5437" d="M 1086.5,476.5 C 1086.5,477.167 1086.5,477.833 1086.5,478.5C 1084.86,483.115 1082.86,487.449 1080.5,491.5C 1081.72,486.169 1083.72,481.169 1086.5,476.5 Z"/></g>
<g><path style="opacity:0.405" fill="#703f24" d="M 1097.5,453.5 C 1097.83,453.5 1098.17,453.5 1098.5,453.5C 1099.17,453.5 1099.83,453.5 1100.5,453.5C 1099.61,472.649 1099.28,491.983 1099.5,511.5C 1099.17,511.5 1098.83,511.5 1098.5,511.5C 1097.5,492.341 1097.17,473.007 1097.5,453.5 Z"/></g>
<g><path style="opacity:0.098" fill="#030302" d="M 1098.5,511.5 C 1098.83,511.5 1099.17,511.5 1099.5,511.5C 1100.82,528.265 1100.82,544.931 1099.5,561.5C 1099.67,560.508 1099.34,559.842 1098.5,559.5C 1098.5,543.5 1098.5,527.5 1098.5,511.5 Z"/></g>
<g><path style="opacity:0.844" fill="#d7804c" d="M 1097.5,453.5 C 1097.17,473.007 1097.5,492.341 1098.5,511.5C 1098.5,527.5 1098.5,543.5 1098.5,559.5C 1098.17,559.5 1097.83,559.5 1097.5,559.5C 1096.04,559.433 1094.71,559.766 1093.5,560.5C 1094.75,551.622 1095.41,542.622 1095.5,533.5C 1096.23,513.168 1096.4,492.834 1096,472.5C 1093.52,474.701 1090.35,476.701 1086.5,478.5C 1086.5,477.833 1086.5,477.167 1086.5,476.5C 1088.3,469.114 1090.3,461.781 1092.5,454.5C 1093.34,453.359 1094.01,452.026 1094.5,450.5C 1095.32,449.614 1096.32,449.281 1097.5,449.5C 1097.5,450.833 1097.5,452.167 1097.5,453.5 Z"/></g>
<g><path style="opacity:0.978" fill="#cc7c48" d="M 1069.5,517.5 C 1069.66,519.527 1069.5,521.527 1069,523.5C 1068.29,524.973 1067.12,525.64 1065.5,525.5C 1065.21,534.054 1061.54,540.72 1054.5,545.5C 1054.89,550.653 1052.56,553.32 1047.5,553.5C 1054.84,541.492 1062.17,529.492 1069.5,517.5 Z"/></g>
<g><path style="opacity:1" fill="#eb8244" d="M 1086.5,583.5 C 1086.5,583.833 1086.5,584.167 1086.5,584.5C 1085.5,584.414 1084.67,584.748 1084,585.5C 1082.76,590.196 1080.93,594.696 1078.5,599C 1078.83,599.333 1079.17,599.667 1079.5,600C 1078.17,602 1076.83,604 1075.5,606C 1076.71,607.107 1076.38,607.607 1074.5,607.5C 1073.25,607.577 1072.42,608.244 1072,609.5C 1071.17,607.595 1070.01,607.261 1068.5,608.5C 1069.6,611.846 1069.44,615.179 1068,618.5C 1067.78,617.062 1067.28,615.729 1066.5,614.5C 1065.83,617.167 1065.17,619.833 1064.5,622.5C 1062.81,624.669 1061.15,626.836 1059.5,629C 1062.17,629.667 1062.17,630.333 1059.5,631C 1059.83,632 1060.17,633 1060.5,634C 1059.83,634.333 1059.17,634.667 1058.5,635C 1059.07,637.507 1059.4,640.007 1059.5,642.5C 1058.34,644.285 1057.67,646.285 1057.5,648.5C 1057.61,650.641 1058.28,652.475 1059.5,654C 1058.44,655.188 1057.1,655.688 1055.5,655.5C 1055.72,654.325 1055.39,653.325 1054.5,652.5C 1054.26,653.247 1053.93,654.08 1053.5,655C 1051,655.412 1049,656.578 1047.5,658.5C 1046.94,660.659 1046.94,663.159 1047.5,666C 1046.17,666.667 1045.17,667.667 1044.5,669C 1046.2,669.393 1047.7,668.893 1049,667.5C 1049.5,667.667 1050,667.833 1050.5,668C 1049.17,668.667 1049.17,669.333 1050.5,670C 1049.86,672.13 1048.53,673.63 1046.5,674.5C 1044.74,674.306 1042.9,674.306 1041,674.5C 1038.85,672.428 1039.02,670.594 1041.5,669C 1040.83,668.667 1040.17,668.333 1039.5,668C 1034.47,668.466 1029.81,668.633 1025.5,668.5C 1026.38,669.251 1027.38,669.751 1028.5,670C 1025.22,672.427 1024.22,675.094 1025.5,678C 1023.66,680.142 1023.33,682.309 1024.5,684.5C 1022.08,690.061 1022.08,695.228 1024.5,700C 1023.83,700.333 1023.17,700.667 1022.5,701C 1023.83,701.667 1023.83,702.333 1022.5,703C 1025.17,703.667 1025.17,704.333 1022.5,705C 1023.83,705.667 1023.83,706.333 1022.5,707C 1023.17,707.333 1023.83,707.667 1024.5,708C 1023.17,709 1021.83,710 1020.5,711C 1021.83,711.667 1022.83,712.667 1023.5,714C 1022.25,715.458 1022.25,716.958 1023.5,718.5C 1021.67,719.428 1021.33,720.594 1022.5,722C 1020.89,722.658 1019.73,722.158 1019,720.5C 1016.65,722.744 1017.15,723.911 1020.5,724C 1019.83,724.333 1019.17,724.667 1018.5,725C 1020.13,725.494 1021.8,725.66 1023.5,725.5C 1022.95,727.331 1022.95,728.997 1023.5,730.5C 1022.91,731.799 1021.91,732.632 1020.5,733C 1021.79,735.09 1021.12,736.424 1018.5,737C 1019.17,737.333 1019.83,737.667 1020.5,738C 1018.13,738.536 1016.13,739.703 1014.5,741.5C 1013.33,744.036 1012.33,746.536 1011.5,749C 1012.17,749.333 1012.83,749.667 1013.5,750C 1009.79,750.496 1008.46,752.33 1009.5,755.5C 1008.54,757.329 1007.54,759.162 1006.5,761C 1006.49,764.154 1007.16,764.321 1008.5,761.5C 1008.83,762 1009.17,762.5 1009.5,763C 1008.38,764.235 1008.38,765.402 1009.5,766.5C 1008.91,767.799 1007.91,768.632 1006.5,769C 1008.28,770.067 1008.78,771.567 1008,773.5C 1007.52,772.552 1007.35,771.552 1007.5,770.5C 1004.81,770.336 1002.15,770.503 999.5,771C 1002.54,771.359 1002.88,772.026 1000.5,773C 1000.83,774 1001.17,775 1001.5,776C 999.507,776.647 997.841,778.313 996.5,781C 997.833,781.333 999.167,781.667 1000.5,782C 998.564,783.362 997.231,785.195 996.5,787.5C 994.003,790.264 991.337,792.097 988.5,793C 990.878,793.974 990.544,794.641 987.5,795C 987.5,796.333 987.5,797.667 987.5,799C 986.234,799.309 985.067,799.809 984,800.5C 982.969,798.579 981.469,798.579 979.5,800.5C 983.311,801.738 983.311,802.404 979.5,802.5C 979.36,804.124 980.027,805.29 981.5,806C 977.148,806.419 976.815,807.086 980.5,808C 979.167,808.333 977.833,808.667 976.5,809C 976.957,809.414 977.291,809.914 977.5,810.5C 976.5,811.333 975.5,812.167 974.5,813C 975.654,813.914 975.487,814.747 974,815.5C 972.915,814.707 971.748,814.04 970.5,813.5C 967.283,814.972 963.949,816.138 960.5,817C 962.167,817.333 963.833,817.667 965.5,818C 963.996,819.337 962.996,821.004 962.5,823C 959.699,824.621 957.199,824.455 955,822.5C 954.667,822.833 954.333,823.167 954,823.5C 952.933,822.809 951.766,822.309 950.5,822C 951.517,820.951 951.684,819.784 951,818.5C 948.822,819.893 947.822,821.56 948,823.5C 946.105,821.39 944.272,821.723 942.5,824.5C 944.119,826.988 943.452,828.988 940.5,830.5C 938.908,828.316 937.574,825.982 936.5,823.5C 934.997,822.948 933.331,822.948 931.5,823.5C 931.5,822.167 931.5,820.833 931.5,819.5C 936.833,819.167 936.833,818.833 931.5,818.5C 931.827,813.786 931.493,809.12 930.5,804.5C 929.756,805.991 929.09,807.491 928.5,809C 929.167,809.333 929.833,809.667 930.5,810C 928.321,812.772 927.987,815.439 929.5,818C 928.751,819.734 928.251,821.567 928,823.5C 927.667,819.167 927.333,814.833 927,810.5C 926.346,811.696 925.846,811.696 925.5,810.5C 926.853,809.476 927.52,808.143 927.5,806.5C 925.897,806.688 924.563,806.188 923.5,805C 925.028,803.352 925.695,801.352 925.5,799C 925.695,796.648 925.028,794.648 923.5,793C 925.832,789.452 926.166,785.618 924.5,781.5C 926.036,776.452 927.036,771.285 927.5,766C 927.432,763.05 926.766,760.383 925.5,758C 927.23,754.148 928.063,749.982 928,745.5C 928.2,749.753 928.7,753.92 929.5,758C 928.14,759.938 928.473,761.604 930.5,763C 928.721,765.943 928.055,768.943 928.5,772C 928.8,774.024 929.633,774.524 931,773.5C 931.174,756.26 931.674,739.093 932.5,722C 931.607,717.886 931.273,713.886 931.5,710C 934.167,709.333 934.167,708.667 931.5,708C 933.107,706.951 933.773,705.451 933.5,703.5C 934.833,703.5 936.167,703.5 937.5,703.5C 937.343,702.127 937.51,700.793 938,699.5C 938.333,700.167 938.667,700.833 939,701.5C 939.333,700.167 939.667,698.833 940,697.5C 941.098,698.967 942.598,699.801 944.5,700C 943.833,700.333 943.167,700.667 942.5,701C 944.203,701.745 945.87,702.579 947.5,703.5C 949.39,702.388 951.39,701.554 953.5,701C 952.833,700.667 952.167,700.333 951.5,700C 952.09,698.491 952.756,696.991 953.5,695.5C 954.532,697.04 955.865,697.54 957.5,697C 956.167,696.333 955.167,695.333 954.5,694C 955.833,692.667 955.833,691.333 954.5,690C 956.134,689.506 957.801,689.34 959.5,689.5C 959.5,688.5 959.5,687.5 959.5,686.5C 954.167,686.167 954.167,685.833 959.5,685.5C 959.5,684.167 959.5,682.833 959.5,681.5C 962.397,681.788 965.23,682.455 968,683.5C 972.447,683.199 972.281,682.699 967.5,682C 971.133,681.717 974.633,680.883 978,679.5C 980.954,679.594 981.121,680.094 978.5,681C 979.448,681.483 980.448,681.649 981.5,681.5C 980.392,679.305 980.559,677.305 982,675.5C 982.333,676.167 982.667,676.833 983,677.5C 983.199,675.598 984.033,674.098 985.5,673C 984.833,672.667 984.167,672.333 983.5,672C 988.794,671.182 988.794,670.682 983.5,670.5C 983.5,669.5 983.5,668.5 983.5,667.5C 984.873,667.657 986.207,667.49 987.5,667C 986.833,666.667 986.167,666.333 985.5,666C 988.488,665.783 991.155,664.783 993.5,663C 990.833,662.333 990.833,661.667 993.5,661C 991.002,658.815 991.002,656.482 993.5,654C 992.204,650.73 990.537,650.23 988.5,652.5C 985.852,650.622 986.019,648.955 989,647.5C 989.945,647.905 990.612,648.572 991,649.5C 992.645,647.075 993.811,644.408 994.5,641.5C 995.912,640.194 997.579,639.36 999.5,639C 996.833,638.333 996.833,637.667 999.5,637C 997.009,636.374 997.009,635.541 999.5,634.5C 994.306,632.942 994.306,631.942 999.5,631.5C 999.335,627.818 999.501,624.152 1000,620.5C 1004.92,618.648 1007.75,615.648 1008.5,611.5C 1009.85,609.987 1011.35,608.653 1013,607.5C 1016.45,606.977 1019.95,606.977 1023.5,607.5C 1023.2,605.396 1023.53,603.396 1024.5,601.5C 1025.19,602.025 1025.69,602.692 1026,603.5C 1027.4,601.808 1029.23,601.141 1031.5,601.5C 1031.65,600.448 1031.48,599.448 1031,598.5C 1030.35,599.696 1029.85,599.696 1029.5,598.5C 1035.1,594.292 1037.77,588.625 1037.5,581.5C 1038.5,581.5 1039.5,581.5 1040.5,581.5C 1040.45,578.352 1040.78,575.019 1041.5,571.5C 1043.49,571.672 1045.16,571.005 1046.5,569.5C 1050.52,572.285 1054.85,572.952 1059.5,571.5C 1057.78,568.684 1058.45,566.517 1061.5,565C 1060.83,564.667 1060.17,564.333 1059.5,564C 1060.84,561.678 1062.34,560.178 1064,559.5C 1064.33,560.167 1064.67,560.833 1065,561.5C 1065.24,558.792 1066.07,556.292 1067.5,554C 1065.5,551.341 1065.17,548.507 1066.5,545.5C 1068.17,543.833 1069.83,542.167 1071.5,540.5C 1065.45,539.212 1064.61,536.212 1069,531.5C 1070.83,532.94 1073,534.773 1075.5,537C 1077.11,537.72 1078.61,537.554 1080,536.5C 1080.98,538.059 1081.81,539.726 1082.5,541.5C 1084.72,542.768 1086.72,544.268 1088.5,546C 1088.17,546.333 1087.83,546.667 1087.5,547C 1089.4,553.123 1090.4,558.956 1090.5,564.5C 1088.36,569.503 1086.7,574.503 1085.5,579.5C 1086.25,580.736 1086.58,582.07 1086.5,583.5 Z"/></g>
<g><path style="opacity:0.999" fill="#ea8245" d="M 1093.5,560.5 C 1091.61,568.393 1089.28,576.059 1086.5,583.5C 1086.58,582.07 1086.25,580.736 1085.5,579.5C 1086.7,574.503 1088.36,569.503 1090.5,564.5C 1090.4,558.956 1089.4,553.123 1087.5,547C 1087.83,546.667 1088.17,546.333 1088.5,546C 1086.72,544.268 1084.72,542.768 1082.5,541.5C 1081.81,539.726 1080.98,538.059 1080,536.5C 1078.61,537.554 1077.11,537.72 1075.5,537C 1073,534.773 1070.83,532.94 1069,531.5C 1064.61,536.212 1065.45,539.212 1071.5,540.5C 1069.83,542.167 1068.17,543.833 1066.5,545.5C 1065.17,548.507 1065.5,551.341 1067.5,554C 1066.07,556.292 1065.24,558.792 1065,561.5C 1064.67,560.833 1064.33,560.167 1064,559.5C 1062.34,560.178 1060.84,561.678 1059.5,564C 1060.17,564.333 1060.83,564.667 1061.5,565C 1058.45,566.517 1057.78,568.684 1059.5,571.5C 1054.85,572.952 1050.52,572.285 1046.5,569.5C 1045.16,571.005 1043.49,571.672 1041.5,571.5C 1040.78,575.019 1040.45,578.352 1040.5,581.5C 1039.5,581.5 1038.5,581.5 1037.5,581.5C 1037.77,588.625 1035.1,594.292 1029.5,598.5C 1029.85,599.696 1030.35,599.696 1031,598.5C 1031.48,599.448 1031.65,600.448 1031.5,601.5C 1029.23,601.141 1027.4,601.808 1026,603.5C 1025.69,602.692 1025.19,602.025 1024.5,601.5C 1023.53,603.396 1023.2,605.396 1023.5,607.5C 1019.95,606.977 1016.45,606.977 1013,607.5C 1011.35,608.653 1009.85,609.987 1008.5,611.5C 1007.75,615.648 1004.92,618.648 1000,620.5C 999.501,624.152 999.335,627.818 999.5,631.5C 994.306,631.942 994.306,632.942 999.5,634.5C 997.009,635.541 997.009,636.374 999.5,637C 996.833,637.667 996.833,638.333 999.5,639C 997.579,639.36 995.912,640.194 994.5,641.5C 993.811,644.408 992.645,647.075 991,649.5C 990.612,648.572 989.945,647.905 989,647.5C 986.019,648.955 985.852,650.622 988.5,652.5C 990.537,650.23 992.204,650.73 993.5,654C 991.002,656.482 991.002,658.815 993.5,661C 990.833,661.667 990.833,662.333 993.5,663C 991.155,664.783 988.488,665.783 985.5,666C 986.167,666.333 986.833,666.667 987.5,667C 986.207,667.49 984.873,667.657 983.5,667.5C 983.5,668.5 983.5,669.5 983.5,670.5C 988.794,670.682 988.794,671.182 983.5,672C 984.167,672.333 984.833,672.667 985.5,673C 984.033,674.098 983.199,675.598 983,677.5C 982.667,676.833 982.333,676.167 982,675.5C 980.559,677.305 980.392,679.305 981.5,681.5C 980.448,681.649 979.448,681.483 978.5,681C 981.121,680.094 980.954,679.594 978,679.5C 974.633,680.883 971.133,681.717 967.5,682C 972.281,682.699 972.447,683.199 968,683.5C 965.23,682.455 962.397,681.788 959.5,681.5C 959.5,682.833 959.5,684.167 959.5,685.5C 954.167,685.833 954.167,686.167 959.5,686.5C 959.5,687.5 959.5,688.5 959.5,689.5C 957.801,689.34 956.134,689.506 954.5,690C 955.833,691.333 955.833,692.667 954.5,694C 955.167,695.333 956.167,696.333 957.5,697C 955.865,697.54 954.532,697.04 953.5,695.5C 952.756,696.991 952.09,698.491 951.5,700C 952.167,700.333 952.833,700.667 953.5,701C 951.39,701.554 949.39,702.388 947.5,703.5C 945.87,702.579 944.203,701.745 942.5,701C 943.167,700.667 943.833,700.333 944.5,700C 942.598,699.801 941.098,698.967 940,697.5C 939.667,698.833 939.333,700.167 939,701.5C 938.667,700.833 938.333,700.167 938,699.5C 937.51,700.793 937.343,702.127 937.5,703.5C 936.167,703.5 934.833,703.5 933.5,703.5C 933.773,705.451 933.107,706.951 931.5,708C 934.167,708.667 934.167,709.333 931.5,710C 931.273,713.886 931.607,717.886 932.5,722C 931.674,739.093 931.174,756.26 931,773.5C 929.633,774.524 928.8,774.024 928.5,772C 928.055,768.943 928.721,765.943 930.5,763C 928.473,761.604 928.14,759.938 929.5,758C 928.7,753.92 928.2,749.753 928,745.5C 928.063,749.982 927.23,754.148 925.5,758C 926.766,760.383 927.432,763.05 927.5,766C 927.036,771.285 926.036,776.452 924.5,781.5C 926.166,785.618 925.832,789.452 923.5,793C 925.028,794.648 925.695,796.648 925.5,799C 925.695,801.352 925.028,803.352 923.5,805C 924.563,806.188 925.897,806.688 927.5,806.5C 927.52,808.143 926.853,809.476 925.5,810.5C 925.846,811.696 926.346,811.696 927,810.5C 927.333,814.833 927.667,819.167 928,823.5C 928.251,821.567 928.751,819.734 929.5,818C 927.987,815.439 928.321,812.772 930.5,810C 929.833,809.667 929.167,809.333 928.5,809C 929.09,807.491 929.756,805.991 930.5,804.5C 931.493,809.12 931.827,813.786 931.5,818.5C 936.833,818.833 936.833,819.167 931.5,819.5C 931.5,820.833 931.5,822.167 931.5,823.5C 933.331,822.948 934.997,822.948 936.5,823.5C 937.574,825.982 938.908,828.316 940.5,830.5C 943.452,828.988 944.119,826.988 942.5,824.5C 944.272,821.723 946.105,821.39 948,823.5C 947.822,821.56 948.822,819.893 951,818.5C 951.684,819.784 951.517,820.951 950.5,822C 951.766,822.309 952.933,822.809 954,823.5C 954.333,823.167 954.667,822.833 955,822.5C 957.199,824.455 959.699,824.621 962.5,823C 962.996,821.004 963.996,819.337 965.5,818C 963.833,817.667 962.167,817.333 960.5,817C 963.949,816.138 967.283,814.972 970.5,813.5C 971.748,814.04 972.915,814.707 974,815.5C 975.487,814.747 975.654,813.914 974.5,813C 975.5,812.167 976.5,811.333 977.5,810.5C 977.291,809.914 976.957,809.414 976.5,809C 977.833,808.667 979.167,808.333 980.5,808C 976.815,807.086 977.148,806.419 981.5,806C 980.027,805.29 979.36,804.124 979.5,802.5C 983.311,802.404 983.311,801.738 979.5,800.5C 981.469,798.579 982.969,798.579 984,800.5C 985.067,799.809 986.234,799.309 987.5,799C 987.5,797.667 987.5,796.333 987.5,795C 990.544,794.641 990.878,793.974 988.5,793C 991.337,792.097 994.003,790.264 996.5,787.5C 997.231,785.195 998.564,783.362 1000.5,782C 999.167,781.667 997.833,781.333 996.5,781C 997.841,778.313 999.507,776.647 1001.5,776C 1001.17,775 1000.83,774 1000.5,773C 1002.88,772.026 1002.54,771.359 999.5,771C 1002.15,770.503 1004.81,770.336 1007.5,770.5C 1007.35,771.552 1007.52,772.552 1008,773.5C 1008.78,771.567 1008.28,770.067 1006.5,769C 1007.91,768.632 1008.91,767.799 1009.5,766.5C 1008.38,765.402 1008.38,764.235 1009.5,763C 1009.17,762.5 1008.83,762 1008.5,761.5C 1007.16,764.321 1006.49,764.154 1006.5,761C 1007.54,759.162 1008.54,757.329 1009.5,755.5C 1008.46,752.33 1009.79,750.496 1013.5,750C 1012.83,749.667 1012.17,749.333 1011.5,749C 1012.33,746.536 1013.33,744.036 1014.5,741.5C 1016.13,739.703 1018.13,738.536 1020.5,738C 1019.83,737.667 1019.17,737.333 1018.5,737C 1021.12,736.424 1021.79,735.09 1020.5,733C 1021.91,732.632 1022.91,731.799 1023.5,730.5C 1022.95,728.997 1022.95,727.331 1023.5,725.5C 1021.8,725.66 1020.13,725.494 1018.5,725C 1019.17,724.667 1019.83,724.333 1020.5,724C 1017.15,723.911 1016.65,722.744 1019,720.5C 1019.73,722.158 1020.89,722.658 1022.5,722C 1021.33,720.594 1021.67,719.428 1023.5,718.5C 1022.25,716.958 1022.25,715.458 1023.5,714C 1022.83,712.667 1021.83,711.667 1020.5,711C 1021.83,710 1023.17,709 1024.5,708C 1023.83,707.667 1023.17,707.333 1022.5,707C 1023.83,706.333 1023.83,705.667 1022.5,705C 1025.17,704.333 1025.17,703.667 1022.5,703C 1023.83,702.333 1023.83,701.667 1022.5,701C 1023.17,700.667 1023.83,700.333 1024.5,700C 1022.08,695.228 1022.08,690.061 1024.5,684.5C 1023.33,682.309 1023.66,680.142 1025.5,678C 1024.22,675.094 1025.22,672.427 1028.5,670C 1027.38,669.751 1026.38,669.251 1025.5,668.5C 1029.81,668.633 1034.47,668.466 1039.5,668C 1040.17,668.333 1040.83,668.667 1041.5,669C 1039.02,670.594 1038.85,672.428 1041,674.5C 1042.9,674.306 1044.74,674.306 1046.5,674.5C 1048.53,673.63 1049.86,672.13 1050.5,670C 1049.17,669.333 1049.17,668.667 1050.5,668C 1050,667.833 1049.5,667.667 1049,667.5C 1047.7,668.893 1046.2,669.393 1044.5,669C 1045.17,667.667 1046.17,666.667 1047.5,666C 1046.94,663.159 1046.94,660.659 1047.5,658.5C 1049,656.578 1051,655.412 1053.5,655C 1053.93,654.08 1054.26,653.247 1054.5,652.5C 1055.39,653.325 1055.72,654.325 1055.5,655.5C 1057.1,655.688 1058.44,655.188 1059.5,654C 1058.28,652.475 1057.61,650.641 1057.5,648.5C 1057.67,646.285 1058.34,644.285 1059.5,642.5C 1059.4,640.007 1059.07,637.507 1058.5,635C 1059.17,634.667 1059.83,634.333 1060.5,634C 1060.17,633 1059.83,632 1059.5,631C 1062.17,630.333 1062.17,629.667 1059.5,629C 1061.15,626.836 1062.81,624.669 1064.5,622.5C 1065.17,619.833 1065.83,617.167 1066.5,614.5C 1067.28,615.729 1067.78,617.062 1068,618.5C 1069.44,615.179 1069.6,611.846 1068.5,608.5C 1070.01,607.261 1071.17,607.595 1072,609.5C 1072.42,608.244 1073.25,607.577 1074.5,607.5C 1073.93,611.707 1073.26,615.873 1072.5,620C 1073.63,621.016 1073.3,621.683 1071.5,622C 1071.83,622.333 1072.17,622.667 1072.5,623C 1067.59,637.463 1062.59,652.296 1057.5,667.5C 1053.76,675.377 1051.1,683.377 1049.5,691.5C 1045.88,699.238 1041.88,706.738 1037.5,714C 1037.83,714.333 1038.17,714.667 1038.5,715C 1037.33,715.5 1036.5,716.333 1036,717.5C 1035.19,715.099 1034.36,715.266 1033.5,718C 1033.5,719.333 1033.5,720.667 1033.5,722C 1030.19,724.228 1028.69,727.394 1029,731.5C 1026.44,734.316 1024.6,737.15 1023.5,740C 1023.83,740.333 1024.17,740.667 1024.5,741C 1023.38,747.699 1020.71,753.699 1016.5,759C 1016.83,759.333 1017.17,759.667 1017.5,760C 1014.12,764.037 1011.62,768.537 1010,773.5C 1005.56,778.037 1002.4,783.37 1000.5,789.5C 998.097,791.305 996.43,793.638 995.5,796.5C 994.067,798.122 992.401,799.455 990.5,800.5C 988.97,805.011 987.304,809.345 985.5,813.5C 964.865,840.147 938.865,859.48 907.5,871.5C 907.5,850.833 907.5,830.167 907.5,809.5C 907.5,772.167 907.5,734.833 907.5,697.5C 910.244,683.688 915.91,671.355 924.5,660.5C 927.573,658.431 929.906,655.764 931.5,652.5C 941.752,644.362 952.752,637.195 964.5,631C 972.99,625.336 981.323,619.503 989.5,613.5C 991.527,613.662 993.527,613.495 995.5,613C 1008.96,601.012 1022.13,588.512 1035,575.5C 1037.79,568.704 1041.79,562.704 1047,557.5C 1047.49,556.207 1047.66,554.873 1047.5,553.5C 1052.56,553.32 1054.89,550.653 1054.5,545.5C 1061.54,540.72 1065.21,534.054 1065.5,525.5C 1067.12,525.64 1068.29,524.973 1069,523.5C 1069.5,521.527 1069.66,519.527 1069.5,517.5C 1073.18,508.787 1076.84,500.121 1080.5,491.5C 1082.86,487.449 1084.86,483.115 1086.5,478.5C 1090.35,476.701 1093.52,474.701 1096,472.5C 1096.4,492.834 1096.23,513.168 1095.5,533.5C 1095.41,542.622 1094.75,551.622 1093.5,560.5 Z"/></g>
<g><path style="opacity:0.896" fill="#d87e49" d="M 1047.5,553.5 C 1047.66,554.873 1047.49,556.207 1047,557.5C 1041.79,562.704 1037.79,568.704 1035,575.5C 1022.13,588.512 1008.96,601.012 995.5,613C 993.527,613.495 991.527,613.662 989.5,613.5C 1010.55,596.453 1029.21,577.119 1045.5,555.5C 1045.83,554.5 1046.5,553.833 1047.5,553.5 Z"/></g>
<g><path style="opacity:0.157" fill="#3e291b" d="M 1044.5,553.5 C 1044.33,554.492 1044.66,555.158 1045.5,555.5C 1029.21,577.119 1010.55,596.453 989.5,613.5C 981.323,619.503 972.99,625.336 964.5,631C 952.752,637.195 941.752,644.362 931.5,652.5C 928.427,654.569 926.094,657.236 924.5,660.5C 915.91,671.355 910.244,683.688 907.5,697.5C 906.833,697.833 906.167,698.167 905.5,698.5C 909.316,675.878 920.316,657.712 938.5,644C 969.181,626.916 997.015,606.083 1022,581.5C 1030.06,572.606 1037.56,563.272 1044.5,553.5 Z"/></g>
<g><path style="opacity:1" fill="#dcca8e" d="M 1097.5,559.5 C 1097.5,602.167 1097.5,644.833 1097.5,687.5C 1097.5,688.167 1097.5,688.833 1097.5,689.5C 1095.4,689.201 1093.4,689.534 1091.5,690.5C 1084.25,694.918 1077.75,700.252 1072,706.5C 1064.06,718.116 1057.39,730.45 1052,743.5C 1042.95,775.383 1031.62,806.383 1018,836.5C 1014.93,839.706 1012.6,843.373 1011,847.5C 1005.61,852.553 999.443,856.386 992.5,859C 983.36,859.941 974.36,861.608 965.5,864C 962.08,865.746 958.913,867.913 956,870.5C 952.7,877.032 949.7,883.698 947,890.5C 937.713,902.789 928.046,914.789 918,926.5C 915,932.167 912,937.833 909,943.5C 908.817,946.365 908.317,949.031 907.5,951.5C 907.5,925.833 907.5,900.167 907.5,874.5C 907.5,873.5 907.5,872.5 907.5,871.5C 938.865,859.48 964.865,840.147 985.5,813.5C 995.05,801.424 1003.88,788.757 1012,775.5C 1022.72,757.399 1032.38,738.732 1041,719.5C 1050.41,696.913 1059.08,673.913 1067,650.5C 1073.81,628.595 1080.31,606.595 1086.5,584.5C 1086.5,584.167 1086.5,583.833 1086.5,583.5C 1089.28,576.059 1091.61,568.393 1093.5,560.5C 1094.71,559.766 1096.04,559.433 1097.5,559.5 Z"/></g>
<g><path style="opacity:0.671" fill="#9a6945" d="M 931.5,652.5 C 929.906,655.764 927.573,658.431 924.5,660.5C 926.094,657.236 928.427,654.569 931.5,652.5 Z"/></g>
<g><path style="opacity:0.319" fill="#6f6b4c" d="M 1097.5,559.5 C 1097.83,559.5 1098.17,559.5 1098.5,559.5C 1099.34,559.842 1099.67,560.508 1099.5,561.5C 1099.5,603.5 1099.5,645.5 1099.5,687.5C 1098.83,687.5 1098.17,687.5 1097.5,687.5C 1097.5,644.833 1097.5,602.167 1097.5,559.5 Z"/></g>
<g><path style="opacity:0.557" fill="#8e804a" d="M 523.5,367.5 C 524.833,568.5 524.833,769.5 523.5,970.5C 523.5,950.833 523.5,931.167 523.5,911.5C 523.48,729.886 523.48,548.553 523.5,367.5 Z"/></g>
<g><path style="opacity:1" fill="#e9874a" d="M 1086.5,584.5 C 1080.31,606.595 1073.81,628.595 1067,650.5C 1059.08,673.913 1050.41,696.913 1041,719.5C 1032.38,738.732 1022.72,757.399 1012,775.5C 1003.88,788.757 995.05,801.424 985.5,813.5C 987.304,809.345 988.97,805.011 990.5,800.5C 992.401,799.455 994.067,798.122 995.5,796.5C 996.43,793.638 998.097,791.305 1000.5,789.5C 1002.4,783.37 1005.56,778.037 1010,773.5C 1011.62,768.537 1014.12,764.037 1017.5,760C 1017.17,759.667 1016.83,759.333 1016.5,759C 1020.71,753.699 1023.38,747.699 1024.5,741C 1024.17,740.667 1023.83,740.333 1023.5,740C 1024.6,737.15 1026.44,734.316 1029,731.5C 1028.69,727.394 1030.19,724.228 1033.5,722C 1033.5,720.667 1033.5,719.333 1033.5,718C 1034.36,715.266 1035.19,715.099 1036,717.5C 1036.5,716.333 1037.33,715.5 1038.5,715C 1038.17,714.667 1037.83,714.333 1037.5,714C 1041.88,706.738 1045.88,699.238 1049.5,691.5C 1051.1,683.377 1053.76,675.377 1057.5,667.5C 1062.59,652.296 1067.59,637.463 1072.5,623C 1072.17,622.667 1071.83,622.333 1071.5,622C 1073.3,621.683 1073.63,621.016 1072.5,620C 1073.26,615.873 1073.93,611.707 1074.5,607.5C 1076.38,607.607 1076.71,607.107 1075.5,606C 1076.83,604 1078.17,602 1079.5,600C 1079.17,599.667 1078.83,599.333 1078.5,599C 1080.93,594.696 1082.76,590.196 1084,585.5C 1084.67,584.748 1085.5,584.414 1086.5,584.5 Z"/></g>
<g><path style="opacity:0.303" fill="#61381c" d="M 907.5,697.5 C 907.5,734.833 907.5,772.167 907.5,809.5C 906.833,808.5 906.167,807.5 905.5,806.5C 905.5,770.5 905.5,734.5 905.5,698.5C 906.167,698.167 906.833,697.833 907.5,697.5 Z"/></g>
<g><path style="opacity:0.313" fill="#492d1a" d="M 905.5,806.5 C 906.167,807.5 906.833,808.5 907.5,809.5C 907.5,830.167 907.5,850.833 907.5,871.5C 907.5,872.5 907.5,873.5 907.5,874.5C 907.167,874.5 906.833,874.5 906.5,874.5C 906.059,852.141 905.726,829.475 905.5,806.5 Z"/></g>
<g><path style="opacity:0.301" fill="#7a502f" d="M 1097.5,687.5 C 1098.17,687.5 1098.83,687.5 1099.5,687.5C 1099.17,780.207 1099.5,872.874 1100.5,965.5C 1099.54,967.265 1099.21,969.265 1099.5,971.5C 1098.68,969.031 1098.18,966.365 1098,963.5C 1097.5,872.167 1097.33,780.834 1097.5,689.5C 1097.5,688.833 1097.5,688.167 1097.5,687.5 Z"/></g>
<g><path style="opacity:0.614" fill="#49441f" d="M 714.5,400.5 C 714.833,400.5 715.167,400.5 715.5,400.5C 716.665,592.764 716.832,785.097 716,977.5C 715.667,984.5 715.333,991.5 715,998.5C 714.317,1003.44 713.15,1008.11 711.5,1012.5C 712.182,999.828 713.015,987.162 714,974.5C 714.5,783.167 714.667,591.834 714.5,400.5 Z"/></g>
<g><path style="opacity:0.216" fill="#814929" d="M 263.5,865.5 C 263.167,866.167 262.833,866.833 262.5,867.5C 246.825,864.852 231.158,864.852 215.5,867.5C 216.506,866.604 216.506,865.938 215.5,865.5C 231.431,862.24 247.431,862.24 263.5,865.5 Z"/></g>
<g><path style="opacity:1" fill="#f6a75d" d="M 1097.5,689.5 C 1097.33,780.834 1097.5,872.167 1098,963.5C 1098.18,966.365 1098.68,969.031 1099.5,971.5C 1099.5,972.833 1099.5,974.167 1099.5,975.5C 1099.9,979.775 1099.9,983.942 1099.5,988C 1100.44,990.707 1101.77,993.207 1103.5,995.5C 1102.06,997.345 1102.4,998.511 1104.5,999C 1104.17,999.333 1103.83,999.667 1103.5,1000C 1111.41,1016.61 1122.58,1030.78 1137,1042.5C 1137.33,1043.5 1137.67,1044.5 1138,1045.5C 1138.33,1045.17 1138.67,1044.83 1139,1044.5C 1147.44,1049.32 1156.44,1052.99 1166,1055.5C 1166.33,1055.17 1166.67,1054.83 1167,1054.5C 1170.1,1058.32 1173.94,1059.32 1178.5,1057.5C 1179.55,1058.38 1180.71,1059.05 1182,1059.5C 1188.38,1058.87 1194.71,1058.21 1201,1057.5C 1203.24,1058.14 1205.58,1058.47 1208,1058.5C 1215.55,1057.48 1222.72,1055.98 1229.5,1054C 1236.17,1050.33 1242.83,1046.67 1249.5,1043C 1250.86,1041.42 1251.53,1039.58 1251.5,1037.5C 1255.22,1037.7 1258.55,1036.7 1261.5,1034.5C 1271.41,1024.42 1279.58,1013.09 1286,1000.5C 1287.69,993.068 1289.69,985.734 1292,978.5C 1293.05,963.474 1294.38,948.474 1296,933.5C 1297.5,929.837 1299.5,926.504 1302,923.5C 1302.62,918.25 1304.96,913.584 1309,909.5C 1309.19,907.423 1309.69,905.423 1310.5,903.5C 1313.51,900.777 1316.51,898.11 1319.5,895.5C 1319.98,894.522 1320.64,893.689 1321.5,893C 1321.17,892.667 1320.83,892.333 1320.5,892C 1325.58,891.305 1328.58,888.471 1329.5,883.5C 1333.77,883.197 1337.44,881.53 1340.5,878.5C 1341.09,878.709 1341.59,879.043 1342,879.5C 1349.19,875.072 1356.86,871.739 1365,869.5C 1365.33,869.833 1365.67,870.167 1366,870.5C 1366.35,867.658 1367.85,865.991 1370.5,865.5C 1387.49,863.276 1403.83,865.276 1419.5,871.5C 1420.69,873.975 1422.69,874.975 1425.5,874.5C 1425.28,875.675 1425.61,876.675 1426.5,877.5C 1429.55,879.694 1432.89,881.361 1436.5,882.5C 1437.34,884.762 1438.68,885.429 1440.5,884.5C 1441.39,885.325 1441.72,886.325 1441.5,887.5C 1442.83,887.5 1444.17,887.5 1445.5,887.5C 1445.35,888.552 1445.52,889.552 1446,890.5C 1450.59,895.194 1455.42,899.528 1460.5,903.5C 1461.63,908.454 1463.46,913.121 1466,917.5C 1468.38,920.534 1470.55,923.701 1472.5,927C 1472.17,927.333 1471.83,927.667 1471.5,928C 1473.5,934.354 1475.5,940.687 1477.5,947C 1477.36,960.504 1477.36,974.17 1477.5,988C 1475.38,995.149 1473.72,1002.32 1472.5,1009.5C 1472.83,1010.17 1473.17,1010.83 1473.5,1011.5C 1472.56,1011.49 1471.89,1011.99 1471.5,1013C 1472.79,1013.11 1473.46,1014.11 1473.5,1016C 1473.25,1017.33 1472.58,1018.33 1471.5,1019C 1471.26,1021.07 1471.59,1023.24 1472.5,1025.5C 1460.06,1082.21 1432.73,1130.38 1390.5,1170C 1375.73,1183.62 1359.73,1195.45 1342.5,1205.5C 1339.13,1205.67 1335.79,1206.17 1332.5,1207C 1328.87,1210.89 1324.37,1213.39 1319,1214.5C 1318.23,1214.36 1317.56,1214.02 1317,1213.5C 1312.62,1218.41 1307.12,1221.24 1300.5,1222C 1292.95,1225.5 1285.61,1229.17 1278.5,1233C 1270.69,1233.37 1263.02,1234.54 1255.5,1236.5C 1255.5,1237.5 1255.5,1238.5 1255.5,1239.5C 1253.52,1239.16 1252.18,1239.82 1251.5,1241.5C 1225.72,1246.2 1199.72,1247.7 1173.5,1246C 1165.6,1245.75 1157.93,1244.58 1150.5,1242.5C 1150.39,1241.88 1150.06,1241.38 1149.5,1241C 1145.2,1240.63 1141.04,1239.79 1137,1238.5C 1135.16,1239.83 1134.66,1239.67 1135.5,1238C 1127.07,1235.06 1118.41,1233.06 1109.5,1232C 1096.79,1227.77 1084.46,1222.77 1072.5,1217C 1068.19,1215.18 1064.19,1212.85 1060.5,1210C 1056.69,1208.26 1052.69,1207.43 1048.5,1207.5C 1048.59,1206.5 1048.25,1205.67 1047.5,1205C 1043.7,1201.77 1039.37,1199.6 1034.5,1198.5C 1030.92,1196.92 1027.59,1194.92 1024.5,1192.5C 994.26,1169.26 968.927,1141.6 948.5,1109.5C 934.265,1085.63 923.432,1060.3 916,1033.5C 915.263,1029.13 914.43,1024.8 913.5,1020.5C 911.344,1007.93 909.511,995.263 908,982.5C 907.5,972.172 907.334,961.839 907.5,951.5C 908.317,949.031 908.817,946.365 909,943.5C 912,937.833 915,932.167 918,926.5C 928.046,914.789 937.713,902.789 947,890.5C 949.7,883.698 952.7,877.032 956,870.5C 958.913,867.913 962.08,865.746 965.5,864C 974.36,861.608 983.36,859.941 992.5,859C 999.443,856.386 1005.61,852.553 1011,847.5C 1012.6,843.373 1014.93,839.706 1018,836.5C 1031.62,806.383 1042.95,775.383 1052,743.5C 1057.39,730.45 1064.06,718.116 1072,706.5C 1077.75,700.252 1084.25,694.918 1091.5,690.5C 1093.4,689.534 1095.4,689.201 1097.5,689.5 Z"/></g>
<g><path style="opacity:0.925" fill="#eb8446" d="M 262.5,867.5 C 270.85,869.514 278.517,872.847 285.5,877.5C 280.415,877.791 276.082,876.124 272.5,872.5C 268.432,872.159 264.765,870.825 261.5,868.5C 257.274,867.93 253.108,867.263 249,866.5C 242.087,867.696 234.587,868.529 226.5,869C 225.944,869.383 225.611,869.883 225.5,870.5C 220.113,870.405 214.78,870.905 209.5,872C 207.208,873.29 205.208,874.957 203.5,877C 198.857,877.83 194.19,878.497 189.5,879C 187.006,882.072 184.34,885.072 181.5,888C 177.057,888.599 173.057,890.099 169.5,892.5C 174.305,887.866 179.305,883.366 184.5,879C 189.827,876.345 195.16,873.678 200.5,871C 205.402,869.358 210.402,868.191 215.5,867.5C 231.158,864.852 246.825,864.852 262.5,867.5 Z"/></g>
<g><path style="opacity:1" fill="#fe843c" d="M 225.5,870.5 C 232.477,870.907 239.31,870.907 246,870.5C 249.258,870.493 252.425,870.993 255.5,872C 261.87,877.374 269.203,880.374 277.5,881C 282.949,883.529 287.949,886.696 292.5,890.5C 293.002,895.258 295.668,897.425 300.5,897C 304.202,901.061 307.369,905.561 310,910.5C 311.512,911.257 312.846,912.257 314,913.5C 315.922,919.535 318.589,925.202 322,930.5C 322.172,934.871 322.672,939.204 323.5,943.5C 324.5,944.5 325.5,945.5 326.5,946.5C 324.535,957.895 324.701,969.561 327,981.5C 328.405,983.191 329.572,985.024 330.5,987C 330.043,987.414 329.709,987.914 329.5,988.5C 331.44,995.047 334.44,1001.05 338.5,1006.5C 337.821,1008.59 337.488,1010.59 337.5,1012.5C 339.014,1015.52 340.347,1018.52 341.5,1021.5C 347.617,1022.28 351.617,1025.62 353.5,1031.5C 356.384,1032.7 359.051,1034.36 361.5,1036.5C 362.386,1037.32 362.719,1038.32 362.5,1039.5C 364.798,1040.31 367.132,1041.14 369.5,1042C 371.919,1045.6 375.752,1048.1 381,1049.5C 382.493,1051.63 384.326,1053.47 386.5,1055C 390.757,1054.66 394.59,1054.5 398,1054.5C 403.728,1057.02 409.728,1058.69 416,1059.5C 418.077,1058.98 420.077,1058.32 422,1057.5C 422.388,1058.43 423.055,1059.09 424,1059.5C 429.986,1058.99 435.819,1058.99 441.5,1059.5C 450.843,1057.38 460.176,1055.21 469.5,1053C 475.571,1050.54 481.404,1047.71 487,1044.5C 488.587,1045.73 489.921,1045.39 491,1043.5C 491.333,1044.17 491.667,1044.83 492,1045.5C 492.667,1044.17 493.333,1044.17 494,1045.5C 491.855,1037.45 494.688,1032.12 502.5,1029.5C 502.662,1031.53 502.495,1033.53 502,1035.5C 500.303,1037.7 498.803,1040.03 497.5,1042.5C 499.256,1044.19 499.756,1046.19 499,1048.5C 494.723,1058.51 490.556,1068.51 486.5,1078.5C 448.043,1144.12 392.376,1187.95 319.5,1210C 316.173,1210.61 312.839,1211.11 309.5,1211.5C 304.733,1211.81 300.066,1211.31 295.5,1210C 296.167,1209.67 296.833,1209.33 297.5,1209C 293.224,1207.58 289.391,1205.41 286,1202.5C 284.163,1202.67 282.163,1203.33 280,1204.5C 278.5,1201.67 276.333,1199.5 273.5,1198C 275.513,1196.21 275.513,1194.88 273.5,1194C 275.901,1193.19 275.734,1192.36 273,1191.5C 271.249,1192.17 269.583,1192.51 268,1192.5C 267.5,1191.33 266.667,1190.5 265.5,1190C 265.833,1189.67 266.167,1189.33 266.5,1189C 265.5,1188.67 264.5,1188.33 263.5,1188C 263.833,1187.67 264.167,1187.33 264.5,1187C 260.235,1184.53 255.902,1182.37 251.5,1180.5C 251.256,1177.74 249.923,1175.57 247.5,1174C 247.527,1172.47 248.027,1170.97 249,1169.5C 244.972,1170.44 241.138,1170.78 237.5,1170.5C 227.865,1160.03 218.365,1149.36 209,1138.5C 201,1127.83 193,1117.17 185,1106.5C 181.157,1100.14 177.324,1093.81 173.5,1087.5C 171.456,1078.53 167.956,1070.2 163,1062.5C 163.631,1059.66 163.131,1057.16 161.5,1055C 161.833,1054.67 162.167,1054.33 162.5,1054C 159.102,1048.71 157.602,1042.88 158,1036.5C 157.086,1033.02 155.919,1029.69 154.5,1026.5C 155.901,1019.77 154.901,1013.44 151.5,1007.5C 153.076,1003.3 153.576,998.964 153,994.5C 151.089,988.028 149.756,981.361 149,974.5C 146.25,973.001 145.084,970.667 145.5,967.5C 147.348,961.385 147.681,955.218 146.5,949C 148.941,942.063 150.441,934.896 151,927.5C 153.74,926.025 154.574,924.025 153.5,921.5C 155.831,914.318 159.665,907.985 165,902.5C 166.294,901.146 166.46,899.812 165.5,898.5C 167.35,896.786 168.684,894.786 169.5,892.5C 173.057,890.099 177.057,888.599 181.5,888C 184.34,885.072 187.006,882.072 189.5,879C 194.19,878.497 198.857,877.83 203.5,877C 205.208,874.957 207.208,873.29 209.5,872C 214.78,870.905 220.113,870.405 225.5,870.5 Z"/></g>
<g><path style="opacity:0.118" fill="#4c2a19" d="M 263.5,865.5 C 283.257,870.629 299.757,880.962 313,896.5C 317.939,902.718 322.106,909.385 325.5,916.5C 325.5,917.833 325.5,919.167 325.5,920.5C 321.079,911.072 315.079,902.738 307.5,895.5C 301.674,887.676 294.341,881.676 285.5,877.5C 278.517,872.847 270.85,869.514 262.5,867.5C 262.833,866.833 263.167,866.167 263.5,865.5 Z"/></g>
<g><path style="opacity:0.098" fill="#493725" d="M 1482.5,981.5 C 1481.83,971.833 1481.17,962.167 1480.5,952.5C 1479.07,932.692 1472.23,915.025 1460,899.5C 1449.86,888.011 1438.03,878.844 1424.5,872C 1422.87,871.506 1421.2,871.34 1419.5,871.5C 1403.83,865.276 1387.49,863.276 1370.5,865.5C 1355.05,867.758 1341.38,873.758 1329.5,883.5C 1309.65,897.546 1297.15,916.546 1292,940.5C 1291.15,949.985 1290.31,959.319 1289.5,968.5C 1289.5,963.167 1289.5,957.833 1289.5,952.5C 1291.1,925.129 1302.44,902.629 1323.5,885C 1359.14,858.565 1396.81,855.565 1436.5,876C 1459.54,891.379 1474.37,912.545 1481,939.5C 1483.28,952.948 1483.78,966.948 1482.5,981.5 Z"/></g>
<g><path style="opacity:0.934" fill="#de9e5f" d="M 1370.5,865.5 C 1367.85,865.991 1366.35,867.658 1366,870.5C 1365.67,870.167 1365.33,869.833 1365,869.5C 1356.86,871.739 1349.19,875.072 1342,879.5C 1341.59,879.043 1341.09,878.709 1340.5,878.5C 1337.44,881.53 1333.77,883.197 1329.5,883.5C 1341.38,873.758 1355.05,867.758 1370.5,865.5 Z"/></g>
<g><path style="opacity:0.351" fill="#61543e" d="M 906.5,874.5 C 906.833,874.5 907.167,874.5 907.5,874.5C 907.5,900.167 907.5,925.833 907.5,951.5C 907.334,961.839 907.5,972.172 908,982.5C 909.511,995.263 911.344,1007.93 913.5,1020.5C 912.833,1019.83 912.167,1019.17 911.5,1018.5C 910.045,1012.03 908.712,1005.53 907.5,999C 908.022,998.439 908.355,997.772 908.5,997C 906.886,987.747 905.886,978.414 905.5,969C 906.118,938.232 906.451,906.732 906.5,874.5 Z"/></g>
<g><path style="opacity:0.216" fill="#4b2e1c" d="M 215.5,865.5 C 216.506,865.938 216.506,866.604 215.5,867.5C 210.402,868.191 205.402,869.358 200.5,871C 195.16,873.678 189.827,876.345 184.5,879C 179.305,883.366 174.305,887.866 169.5,892.5C 154.686,907.122 145.352,924.789 141.5,945.5C 140.833,945.833 140.167,946.167 139.5,946.5C 147.425,902.87 172.758,875.87 215.5,865.5 Z"/></g>
<g><path style="opacity:0.918" fill="#eaa563" d="M 1419.5,871.5 C 1421.2,871.34 1422.87,871.506 1424.5,872C 1438.03,878.844 1449.86,888.011 1460,899.5C 1472.23,915.025 1479.07,932.692 1480.5,952.5C 1480.6,965.515 1480.27,978.515 1479.5,991.5C 1478.36,1003.21 1476.03,1014.54 1472.5,1025.5C 1471.59,1023.24 1471.26,1021.07 1471.5,1019C 1472.58,1018.33 1473.25,1017.33 1473.5,1016C 1473.46,1014.11 1472.79,1013.11 1471.5,1013C 1471.89,1011.99 1472.56,1011.49 1473.5,1011.5C 1473.17,1010.83 1472.83,1010.17 1472.5,1009.5C 1473.72,1002.32 1475.38,995.149 1477.5,988C 1477.36,974.17 1477.36,960.504 1477.5,947C 1475.5,940.687 1473.5,934.354 1471.5,928C 1471.83,927.667 1472.17,927.333 1472.5,927C 1470.55,923.701 1468.38,920.534 1466,917.5C 1463.46,913.121 1461.63,908.454 1460.5,903.5C 1455.42,899.528 1450.59,895.194 1446,890.5C 1445.52,889.552 1445.35,888.552 1445.5,887.5C 1444.17,887.5 1442.83,887.5 1441.5,887.5C 1441.72,886.325 1441.39,885.325 1440.5,884.5C 1438.68,885.429 1437.34,884.762 1436.5,882.5C 1432.89,881.361 1429.55,879.694 1426.5,877.5C 1425.61,876.675 1425.28,875.675 1425.5,874.5C 1422.69,874.975 1420.69,873.975 1419.5,871.5 Z"/></g>
<g><path style="opacity:0.02" fill="#270900" d="M 523.5,911.5 C 523.5,931.167 523.5,950.833 523.5,970.5C 523.5,970.833 523.5,971.167 523.5,971.5C 522.833,971.5 522.5,971.167 522.5,970.5C 522.362,965.325 522.029,960.325 521.5,955.5C 522.151,940.705 522.818,926.039 523.5,911.5 Z"/></g>
<g><path style="opacity:0.98" fill="#da7b3f" d="M 307.5,895.5 C 315.079,902.738 321.079,911.072 325.5,920.5C 331.659,935.48 334.159,951.147 333,967.5C 333.642,973.207 334.475,978.873 335.5,984.5C 334.21,983.942 333.377,982.942 333,981.5C 332.063,960.704 328.73,940.37 323,920.5C 319.393,915.051 315.559,909.717 311.5,904.5C 310.344,901.262 309.011,898.262 307.5,895.5 Z"/></g>
<g><path style="opacity:0.944" fill="#e4a262" d="M 1329.5,883.5 C 1328.58,888.471 1325.58,891.305 1320.5,892C 1320.83,892.333 1321.17,892.667 1321.5,893C 1320.64,893.689 1319.98,894.522 1319.5,895.5C 1316.51,898.11 1313.51,900.777 1310.5,903.5C 1309.69,905.423 1309.19,907.423 1309,909.5C 1304.96,913.584 1302.62,918.25 1302,923.5C 1299.5,926.504 1297.5,929.837 1296,933.5C 1294.38,948.474 1293.05,963.474 1292,978.5C 1289.69,985.734 1287.69,993.068 1286,1000.5C 1279.58,1013.09 1271.41,1024.42 1261.5,1034.5C 1258.55,1036.7 1255.22,1037.7 1251.5,1037.5C 1267.93,1024.64 1279.43,1008.31 1286,988.5C 1287.48,981.883 1288.65,975.216 1289.5,968.5C 1290.31,959.319 1291.15,949.985 1292,940.5C 1297.15,916.546 1309.65,897.546 1329.5,883.5 Z"/></g>
<g><path style="opacity:0.307" fill="#854825" d="M 141.5,945.5 C 141.479,961.176 141.813,976.843 142.5,992.5C 141.677,989.023 141.177,985.356 141,981.5C 140.617,982.056 140.117,982.389 139.5,982.5C 139.8,970.412 139.8,958.412 139.5,946.5C 140.167,946.167 140.833,945.833 141.5,945.5 Z"/></g>
<g><path style="opacity:0.196" fill="#7a664a" d="M 1480.5,952.5 C 1481.17,962.167 1481.83,971.833 1482.5,981.5C 1481.79,984.786 1481.46,988.119 1481.5,991.5C 1480.83,991.5 1480.17,991.5 1479.5,991.5C 1480.27,978.515 1480.6,965.515 1480.5,952.5 Z"/></g>
<g><path style="opacity:0.991" fill="#f18341" d="M 169.5,892.5 C 168.684,894.786 167.35,896.786 165.5,898.5C 166.46,899.812 166.294,901.146 165,902.5C 159.665,907.985 155.831,914.318 153.5,921.5C 154.574,924.025 153.74,926.025 151,927.5C 150.441,934.896 148.941,942.063 146.5,949C 147.681,955.218 147.348,961.385 145.5,967.5C 145.084,970.667 146.25,973.001 149,974.5C 149.756,981.361 151.089,988.028 153,994.5C 153.576,998.964 153.076,1003.3 151.5,1007.5C 154.901,1013.44 155.901,1019.77 154.5,1026.5C 155.919,1029.69 157.086,1033.02 158,1036.5C 157.602,1042.88 159.102,1048.71 162.5,1054C 162.167,1054.33 161.833,1054.67 161.5,1055C 163.131,1057.16 163.631,1059.66 163,1062.5C 167.956,1070.2 171.456,1078.53 173.5,1087.5C 169.435,1082.25 165.935,1076.58 163,1070.5C 152.422,1045.58 145.589,1019.58 142.5,992.5C 141.813,976.843 141.479,961.176 141.5,945.5C 145.352,924.789 154.686,907.122 169.5,892.5 Z"/></g>
<g><path style="opacity:0.078" fill="#3b1c12" d="M 325.5,916.5 C 329.802,924.573 332.635,933.24 334,942.5C 331.12,978.025 342.62,1007.69 368.5,1031.5C 367.833,1031.83 367.167,1032.17 366.5,1032.5C 359.797,1026.96 353.963,1020.63 349,1013.5C 343.905,1003.98 339.405,994.316 335.5,984.5C 334.475,978.873 333.642,973.207 333,967.5C 334.159,951.147 331.659,935.48 325.5,920.5C 325.5,919.167 325.5,917.833 325.5,916.5 Z"/></g>
<g><path style="opacity:0.2" fill="#372a1b" d="M 1289.5,952.5 C 1289.5,957.833 1289.5,963.167 1289.5,968.5C 1288.65,975.216 1287.48,981.883 1286,988.5C 1279.43,1008.31 1267.93,1024.64 1251.5,1037.5C 1244.25,1042.29 1236.58,1046.29 1228.5,1049.5C 1227.5,1049.5 1226.5,1049.5 1225.5,1049.5C 1255.67,1036.83 1275.5,1014.83 1285,983.5C 1287.53,973.173 1289.03,962.839 1289.5,952.5 Z"/></g>
<g><path style="opacity:0.176" fill="#4d321f" d="M 522.5,970.5 C 522.5,971.167 522.833,971.5 523.5,971.5C 522.262,980.024 520.262,988.358 517.5,996.5C 495.552,1040.53 459.885,1060.03 410.5,1055C 393.688,1051.43 379.021,1043.93 366.5,1032.5C 367.167,1032.17 367.833,1031.83 368.5,1031.5C 397.585,1055.37 429.585,1060.54 464.5,1047C 497,1031.35 516.333,1005.85 522.5,970.5 Z"/></g>
<g><path style="opacity:0.92" fill="#e5a260" d="M 1099.5,975.5 C 1107.67,1012.5 1129.34,1038 1164.5,1052C 1179.98,1055.38 1195.64,1056.38 1211.5,1055C 1217.53,1053.92 1223.2,1052.08 1228.5,1049.5C 1236.58,1046.29 1244.25,1042.29 1251.5,1037.5C 1251.53,1039.58 1250.86,1041.42 1249.5,1043C 1242.83,1046.67 1236.17,1050.33 1229.5,1054C 1222.72,1055.98 1215.55,1057.48 1208,1058.5C 1205.58,1058.47 1203.24,1058.14 1201,1057.5C 1194.71,1058.21 1188.38,1058.87 1182,1059.5C 1180.71,1059.05 1179.55,1058.38 1178.5,1057.5C 1173.94,1059.32 1170.1,1058.32 1167,1054.5C 1166.67,1054.83 1166.33,1055.17 1166,1055.5C 1156.44,1052.99 1147.44,1049.32 1139,1044.5C 1138.67,1044.83 1138.33,1045.17 1138,1045.5C 1137.67,1044.5 1137.33,1043.5 1137,1042.5C 1122.58,1030.78 1111.41,1016.61 1103.5,1000C 1103.83,999.667 1104.17,999.333 1104.5,999C 1102.4,998.511 1102.06,997.345 1103.5,995.5C 1101.77,993.207 1100.44,990.707 1099.5,988C 1099.9,983.942 1099.9,979.775 1099.5,975.5 Z"/></g>
<g><path style="opacity:0.039" fill="#372b1d" d="M 911.5,1018.5 C 912.167,1019.17 912.833,1019.83 913.5,1020.5C 914.43,1024.8 915.263,1029.13 916,1033.5C 923.432,1060.3 934.265,1085.63 948.5,1109.5C 948.167,1109.5 947.833,1109.5 947.5,1109.5C 929.661,1081.68 917.661,1051.35 911.5,1018.5 Z"/></g>
<g><path style="opacity:1" fill="#f28440" d="M 285.5,877.5 C 294.341,881.676 301.674,887.676 307.5,895.5C 309.011,898.262 310.344,901.262 311.5,904.5C 315.559,909.717 319.393,915.051 323,920.5C 328.73,940.37 332.063,960.704 333,981.5C 333.377,982.942 334.21,983.942 335.5,984.5C 339.405,994.316 343.905,1003.98 349,1013.5C 353.963,1020.63 359.797,1026.96 366.5,1032.5C 379.021,1043.93 393.688,1051.43 410.5,1055C 459.885,1060.03 495.552,1040.53 517.5,996.5C 512.661,1026.03 502.328,1053.36 486.5,1078.5C 490.556,1068.51 494.723,1058.51 499,1048.5C 499.756,1046.19 499.256,1044.19 497.5,1042.5C 498.803,1040.03 500.303,1037.7 502,1035.5C 502.495,1033.53 502.662,1031.53 502.5,1029.5C 494.688,1032.12 491.855,1037.45 494,1045.5C 493.333,1044.17 492.667,1044.17 492,1045.5C 491.667,1044.83 491.333,1044.17 491,1043.5C 489.921,1045.39 488.587,1045.73 487,1044.5C 481.404,1047.71 475.571,1050.54 469.5,1053C 460.176,1055.21 450.843,1057.38 441.5,1059.5C 435.819,1058.99 429.986,1058.99 424,1059.5C 423.055,1059.09 422.388,1058.43 422,1057.5C 420.077,1058.32 418.077,1058.98 416,1059.5C 409.728,1058.69 403.728,1057.02 398,1054.5C 394.59,1054.5 390.757,1054.66 386.5,1055C 384.326,1053.47 382.493,1051.63 381,1049.5C 375.752,1048.1 371.919,1045.6 369.5,1042C 367.132,1041.14 364.798,1040.31 362.5,1039.5C 362.719,1038.32 362.386,1037.32 361.5,1036.5C 359.051,1034.36 356.384,1032.7 353.5,1031.5C 351.617,1025.62 347.617,1022.28 341.5,1021.5C 340.347,1018.52 339.014,1015.52 337.5,1012.5C 337.488,1010.59 337.821,1008.59 338.5,1006.5C 334.44,1001.05 331.44,995.047 329.5,988.5C 329.709,987.914 330.043,987.414 330.5,987C 329.572,985.024 328.405,983.191 327,981.5C 324.701,969.561 324.535,957.895 326.5,946.5C 325.5,945.5 324.5,944.5 323.5,943.5C 322.672,939.204 322.172,934.871 322,930.5C 318.589,925.202 315.922,919.535 314,913.5C 312.846,912.257 311.512,911.257 310,910.5C 307.369,905.561 304.202,901.061 300.5,897C 295.668,897.425 293.002,895.258 292.5,890.5C 287.949,886.696 282.949,883.529 277.5,881C 269.203,880.374 261.87,877.374 255.5,872C 252.425,870.993 249.258,870.493 246,870.5C 239.31,870.907 232.477,870.907 225.5,870.5C 225.611,869.883 225.944,869.383 226.5,869C 234.587,868.529 242.087,867.696 249,866.5C 253.108,867.263 257.274,867.93 261.5,868.5C 264.765,870.825 268.432,872.159 272.5,872.5C 276.082,876.124 280.415,877.791 285.5,877.5 Z"/></g>
<g><path style="opacity:0.075" fill="#4d3b27" d="M 1100.5,965.5 C 1106.27,1011.23 1131.27,1040.4 1175.5,1053C 1192.55,1055.76 1209.22,1054.6 1225.5,1049.5C 1226.5,1049.5 1227.5,1049.5 1228.5,1049.5C 1223.2,1052.08 1217.53,1053.92 1211.5,1055C 1195.64,1056.38 1179.98,1055.38 1164.5,1052C 1129.34,1038 1107.67,1012.5 1099.5,975.5C 1099.5,974.167 1099.5,972.833 1099.5,971.5C 1099.21,969.265 1099.54,967.265 1100.5,965.5 Z"/></g>
<g><path style="opacity:0.141" fill="#4a301f" d="M 142.5,992.5 C 145.589,1019.58 152.422,1045.58 163,1070.5C 165.935,1076.58 169.435,1082.25 173.5,1087.5C 177.324,1093.81 181.157,1100.14 185,1106.5C 193,1117.17 201,1127.83 209,1138.5C 218.365,1149.36 227.865,1160.03 237.5,1170.5C 243.627,1178.46 250.627,1185.63 258.5,1192C 273.702,1202.77 289.702,1212.27 306.5,1220.5C 312.561,1223.8 318.894,1226.64 325.5,1229C 339.511,1233.53 353.511,1237.69 367.5,1241.5C 312.028,1232.07 265.528,1206.4 228,1164.5C 209.944,1142.72 192.611,1120.39 176,1097.5C 154.175,1062.45 142.008,1024.11 139.5,982.5C 140.117,982.389 140.617,982.056 141,981.5C 141.177,985.356 141.677,989.023 142.5,992.5 Z"/></g>
<g><path style="opacity:0.096" fill="#3b3721" d="M 711.5,1012.5 C 711.665,1015.52 711.498,1018.52 711,1021.5C 700.285,1069.01 679.285,1111.34 648,1148.5C 643.051,1152.43 638.551,1156.77 634.5,1161.5C 640.81,1153.52 647.143,1145.52 653.5,1137.5C 659.137,1130.35 664.637,1123.02 670,1115.5C 689.809,1083.57 703.642,1049.24 711.5,1012.5 Z"/></g>
<g><path style="opacity:0.993" fill="#d2b96c" d="M 653.5,1137.5 C 647.143,1145.52 640.81,1153.52 634.5,1161.5C 631.766,1163.55 628.766,1165.22 625.5,1166.5C 625.709,1167.09 626.043,1167.59 626.5,1168C 600.052,1193.23 569.719,1212.4 535.5,1225.5C 535.281,1224.32 535.614,1223.32 536.5,1222.5C 538.565,1222.05 540.232,1221.05 541.5,1219.5C 546.881,1218.26 552.215,1216.92 557.5,1215.5C 557.281,1214.32 557.614,1213.32 558.5,1212.5C 560.817,1210.68 562.984,1208.68 565,1206.5C 565.561,1207.02 566.228,1207.36 567,1207.5C 570.044,1204.98 573.544,1203.31 577.5,1202.5C 582.317,1198.24 587.65,1194.91 593.5,1192.5C 595.221,1189.09 597.555,1186.26 600.5,1184C 602.676,1183.84 604.509,1183 606,1181.5C 606.333,1181.83 606.667,1182.17 607,1182.5C 608.289,1179.31 609.956,1176.31 612,1173.5C 617.69,1168.15 623.69,1163.15 630,1158.5C 630.273,1156.9 630.773,1155.4 631.5,1154C 632.449,1153.38 633.282,1153.55 634,1154.5C 635.865,1152.22 638.032,1150.38 640.5,1149C 643.637,1145.46 646.637,1141.8 649.5,1138C 650.793,1137.51 652.127,1137.34 653.5,1137.5 Z"/></g>
<g><path style="opacity:0.071" fill="#4c3b26" d="M 1479.5,991.5 C 1480.17,991.5 1480.83,991.5 1481.5,991.5C 1470.4,1076.29 1430.74,1144.45 1362.5,1196C 1330.81,1217.07 1296.47,1232.23 1259.5,1241.5C 1259.17,1240.83 1258.83,1240.17 1258.5,1239.5C 1288.48,1233.06 1316.48,1221.73 1342.5,1205.5C 1359.73,1195.45 1375.73,1183.62 1390.5,1170C 1432.73,1130.38 1460.06,1082.21 1472.5,1025.5C 1476.03,1014.54 1478.36,1003.21 1479.5,991.5 Z"/></g>
<g><path style="opacity:0.125" fill="#433824" d="M 947.5,1109.5 C 947.833,1109.5 948.167,1109.5 948.5,1109.5C 968.927,1141.6 994.26,1169.26 1024.5,1192.5C 1023.83,1192.5 1023.17,1192.5 1022.5,1192.5C 991.507,1170.18 966.507,1142.51 947.5,1109.5 Z"/></g>
<g><path style="opacity:0.09" fill="#443d27" d="M 634.5,1161.5 C 608.495,1189.29 577.828,1210.79 542.5,1226C 532.283,1229.69 522.117,1233.52 512,1237.5C 511.329,1236.75 510.496,1236.41 509.5,1236.5C 518.319,1233.23 526.985,1229.56 535.5,1225.5C 569.719,1212.4 600.052,1193.23 626.5,1168C 626.043,1167.59 625.709,1167.09 625.5,1166.5C 628.766,1165.22 631.766,1163.55 634.5,1161.5 Z"/></g>
<g><path style="opacity:0.196" fill="#2c2618" d="M 1022.5,1192.5 C 1023.17,1192.5 1023.83,1192.5 1024.5,1192.5C 1027.59,1194.92 1030.92,1196.92 1034.5,1198.5C 1038.48,1202.49 1043.15,1205.49 1048.5,1207.5C 1049.66,1209.25 1051.33,1210.25 1053.5,1210.5C 1059,1214.3 1065,1217.3 1071.5,1219.5C 1083.52,1226 1096.19,1231.17 1109.5,1235C 1119.97,1238.33 1130.63,1240.83 1141.5,1242.5C 1141.5,1242.83 1141.5,1243.17 1141.5,1243.5C 1107.54,1238.12 1075.54,1226.62 1045.5,1209C 1037.96,1203.29 1030.29,1197.79 1022.5,1192.5 Z"/></g>
<g><path style="opacity:0.962" fill="#f38440" d="M 309.5,1211.5 C 306.924,1213.89 305.924,1216.89 306.5,1220.5C 289.702,1212.27 273.702,1202.77 258.5,1192C 250.627,1185.63 243.627,1178.46 237.5,1170.5C 241.138,1170.78 244.972,1170.44 249,1169.5C 248.027,1170.97 247.527,1172.47 247.5,1174C 249.923,1175.57 251.256,1177.74 251.5,1180.5C 255.902,1182.37 260.235,1184.53 264.5,1187C 264.167,1187.33 263.833,1187.67 263.5,1188C 264.5,1188.33 265.5,1188.67 266.5,1189C 266.167,1189.33 265.833,1189.67 265.5,1190C 266.667,1190.5 267.5,1191.33 268,1192.5C 269.583,1192.51 271.249,1192.17 273,1191.5C 275.734,1192.36 275.901,1193.19 273.5,1194C 275.513,1194.88 275.513,1196.21 273.5,1198C 276.333,1199.5 278.5,1201.67 280,1204.5C 282.163,1203.33 284.163,1202.67 286,1202.5C 289.391,1205.41 293.224,1207.58 297.5,1209C 296.833,1209.33 296.167,1209.67 295.5,1210C 300.066,1211.31 304.733,1211.81 309.5,1211.5 Z"/></g>
<g><path style="opacity:0.847" fill="#c2925d" d="M 1034.5,1198.5 C 1039.37,1199.6 1043.7,1201.77 1047.5,1205C 1048.25,1205.67 1048.59,1206.5 1048.5,1207.5C 1043.15,1205.49 1038.48,1202.49 1034.5,1198.5 Z"/></g>
<g><path style="opacity:0.839" fill="#b3875a" d="M 1053.5,1210.5 C 1056.18,1211.23 1058.85,1212.06 1061.5,1213C 1065.24,1214.59 1068.58,1216.76 1071.5,1219.5C 1065,1217.3 1059,1214.3 1053.5,1210.5 Z"/></g>
<g><path style="opacity:0.945" fill="#e3a15f" d="M 1048.5,1207.5 C 1052.69,1207.43 1056.69,1208.26 1060.5,1210C 1064.19,1212.85 1068.19,1215.18 1072.5,1217C 1084.46,1222.77 1096.79,1227.77 1109.5,1232C 1118.41,1233.06 1127.07,1235.06 1135.5,1238C 1134.66,1239.67 1135.16,1239.83 1137,1238.5C 1141.04,1239.79 1145.2,1240.63 1149.5,1241C 1150.06,1241.38 1150.39,1241.88 1150.5,1242.5C 1147.5,1242.5 1144.5,1242.5 1141.5,1242.5C 1130.63,1240.83 1119.97,1238.33 1109.5,1235C 1096.19,1231.17 1083.52,1226 1071.5,1219.5C 1068.58,1216.76 1065.24,1214.59 1061.5,1213C 1058.85,1212.06 1056.18,1211.23 1053.5,1210.5C 1051.33,1210.25 1049.66,1209.25 1048.5,1207.5 Z"/></g>
<g><path style="opacity:0.897" fill="#e7a563" d="M 1342.5,1205.5 C 1316.48,1221.73 1288.48,1233.06 1258.5,1239.5C 1256.11,1240.01 1253.77,1240.68 1251.5,1241.5C 1252.18,1239.82 1253.52,1239.16 1255.5,1239.5C 1255.5,1238.5 1255.5,1237.5 1255.5,1236.5C 1263.02,1234.54 1270.69,1233.37 1278.5,1233C 1285.61,1229.17 1292.95,1225.5 1300.5,1222C 1307.12,1221.24 1312.62,1218.41 1317,1213.5C 1317.56,1214.02 1318.23,1214.36 1319,1214.5C 1324.37,1213.39 1328.87,1210.89 1332.5,1207C 1335.79,1206.17 1339.13,1205.67 1342.5,1205.5 Z"/></g>
<g><path style="opacity:0.039" fill="#493a31" d="M 367.5,1241.5 C 371.078,1241.55 374.411,1242.22 377.5,1243.5C 373.84,1243.84 370.507,1243.17 367.5,1241.5 Z"/></g>
<g><path style="opacity:0.102" fill="#4f4b2d" d="M 509.5,1236.5 C 505.248,1238.6 500.748,1240.26 496,1241.5C 495.667,1241.17 495.333,1240.83 495,1240.5C 488.638,1242.17 482.304,1243.83 476,1245.5C 475.667,1245.17 475.333,1244.83 475,1244.5C 471.839,1245.21 468.672,1245.87 465.5,1246.5C 464.432,1245.57 463.099,1245.23 461.5,1245.5C 477.569,1243.38 493.569,1240.38 509.5,1236.5 Z"/></g>
<g><path style="opacity:0.157" fill="#686233" d="M 378.5,1243.5 C 405.416,1246.7 432.416,1247.37 459.5,1245.5C 458.167,1246.17 456.833,1246.83 455.5,1247.5C 435.157,1248.92 414.824,1248.76 394.5,1247C 388.92,1246.35 383.586,1245.19 378.5,1243.5 Z"/></g>
<g><path style="opacity:0.004" fill="#1b1610" d="M 459.5,1245.5 C 460.167,1245.5 460.833,1245.5 461.5,1245.5C 463.099,1245.23 464.432,1245.57 465.5,1246.5C 462.167,1246.83 458.833,1247.17 455.5,1247.5C 456.833,1246.83 458.167,1246.17 459.5,1245.5 Z"/></g>
<g><path style="opacity:0.125" fill="#745d3c" d="M 1258.5,1239.5 C 1258.83,1240.17 1259.17,1240.83 1259.5,1241.5C 1248.86,1243.44 1238.19,1245.27 1227.5,1247C 1223.85,1247.5 1220.18,1247.67 1216.5,1247.5C 1203.99,1247.17 1191.66,1247.5 1179.5,1248.5C 1166.66,1247.98 1154,1246.31 1141.5,1243.5C 1141.5,1243.17 1141.5,1242.83 1141.5,1242.5C 1144.5,1242.5 1147.5,1242.5 1150.5,1242.5C 1157.93,1244.58 1165.6,1245.75 1173.5,1246C 1199.72,1247.7 1225.72,1246.2 1251.5,1241.5C 1253.77,1240.68 1256.11,1240.01 1258.5,1239.5 Z"/></g>
<g><path style="opacity:0.078" fill="#2d2210" d="M 1179.5,1248.5 C 1191.66,1247.5 1203.99,1247.17 1216.5,1247.5C 1204.36,1249.64 1192.03,1249.98 1179.5,1248.5 Z"/></g>
</svg>
